<?xml version="1.0" standalone="no"?>
<svg viewBox="0 0 200 200" xmlns="http://www.w3.org/2000/svg">
  <path fill="#24A148" d="M41.9,-66.9C55.4,-56.5,68.2,-46.8,73.6,-33.9C78.9,-21.1,76.9,-5.2,73.7,10C70.6,25.2,66.4,39.6,58.1,51.7C49.7,63.8,37.1,73.6,22.8,77.7C8.6,81.8,-7.3,80.3,-22.1,75.7C-36.9,71.1,-50.6,63.5,-62.8,52.6C-74.9,41.8,-85.4,27.8,-87.1,12.8C-88.9,-2.2,-81.8,-18.2,-73.2,-32C-64.7,-45.9,-54.6,-57.7,-42.2,-68.5C-29.7,-79.3,-14.9,-89.3,-0.3,-88.7C14.2,-88.2,28.4,-77.2,41.9,-66.9Z" transform="translate(100 100)" />
</svg>
